<?xml version="1.0" standalone="no"?>
<!DOCTYPE svg PUBLIC "-//W3C//DTD SVG 20010904//EN"
 "http://www.w3.org/TR/2001/REC-SVG-20010904/DTD/svg10.dtd">
<svg version="1.0" xmlns="http://www.w3.org/2000/svg"
 width="678.000000pt" height="368.000000pt" viewBox="0 0 678.000000 368.000000"
 preserveAspectRatio="xMidYMid meet">

<g transform="translate(0.000000,368.000000) scale(0.100000,-0.100000)"
fill="#000000" stroke="none">
<path d="M3618 2776 c-15 -6 -40 -24 -57 -39 -17 -15 -33 -27 -36 -27 -13 0
-64 -67 -65 -85 0 -11 -10 -38 -23 -60 -18 -31 -30 -41 -57 -46 -19 -3 -53
-15 -75 -26 -79 -40 -76 -41 -162 45 -77 77 -102 91 -158 90 -22 0 -97 -23
-126 -38 -23 -13 -74 -114 -82 -165 -4 -21 -15 -57 -26 -80 -23 -47 -67 -359
-57 -399 6 -24 4 -26 -24 -26 -23 0 -31 -5 -36 -24 -8 -33 0 -44 41 -52 35 -6
38 -11 51 -74 6 -32 57 -136 107 -221 22 -36 117 -129 133 -129 4 0 16 -7 26
-16 17 -16 16 -17 -15 -33 -39 -19 -44 -47 -7 -43 14 2 40 10 58 18 25 12 36
13 47 4 8 -6 19 -9 25 -5 6 4 20 -1 31 -11 10 -9 20 -14 20 -11 5 26 1 35 -30
56 l-34 24 28 23 c16 13 38 24 49 26 29 4 31 26 2 34 -33 8 -55 0 -92 -34 -33
-30 -38 -29 -93 10 -13 10 -27 16 -31 13 -4 -3 -11 5 -14 18 -3 12 -18 30 -32
41 -22 15 -28 16 -36 5 -8 -11 -8 -10 -4 4 4 12 -15 61 -49 129 -30 60 -55
119 -55 130 0 18 4 20 45 14 24 -4 79 -9 122 -11 43 -2 85 -6 93 -9 21 -6 90
-16 118 -16 12 0 22 -5 22 -10 0 -6 5 -10 10 -10 6 0 29 -9 53 -20 60 -28 150
-39 237 -30 104 11 153 40 179 108 8 17 19 32 25 32 7 0 17 5 24 12 7 7 33 17
58 24 43 11 46 10 60 -12 45 -68 187 -58 291 22 l33 25 0 -25 c0 -16 -6 -26
-15 -26 -17 0 -20 -25 -5 -35 27 -16 -4 -146 -51 -216 -50 -73 -105 -138 -121
-144 -9 -3 -36 -21 -60 -40 -23 -19 -48 -35 -55 -35 -6 0 -27 -9 -45 -19 -35
-21 -131 -45 -213 -55 -27 -3 -72 -8 -100 -11 -51 -6 -143 6 -229 30 -55 16
-66 13 -50 -13 16 -25 63 -46 114 -49 25 -1 83 -6 129 -9 80 -6 237 13 296 36
69 28 145 65 187 90 27 17 50 30 52 30 7 0 80 -133 93 -169 6 -19 21 -47 32
-62 12 -16 21 -35 21 -42 0 -8 6 -20 14 -26 8 -6 16 -24 19 -39 2 -15 11 -61
19 -102 17 -80 18 -93 18 -186 -1 -43 4 -65 15 -74 8 -7 15 -19 15 -26 0 -7
12 -21 28 -31 33 -20 71 -63 72 -80 0 -7 -11 -37 -24 -66 -20 -46 -31 -57 -72
-77 -30 -14 -64 -22 -86 -21 -32 2 -38 -1 -38 -17 0 -11 6 -22 14 -25 18 -7
85 8 99 22 6 6 21 11 32 11 46 0 100 95 100 176 0 48 -2 53 -53 100 l-52 49
-5 80 c-7 121 -17 197 -26 215 -4 8 -11 31 -14 51 -3 21 -14 48 -25 62 -11 14
-20 31 -20 38 0 7 -6 20 -14 28 -7 9 -23 43 -35 76 -12 33 -28 65 -34 70 -17
13 -57 79 -57 93 0 11 23 48 71 112 33 44 67 115 75 158 4 18 11 35 15 38 5 3
9 20 9 39 0 39 9 47 55 47 32 0 75 28 75 48 0 16 -15 12 -44 -11 -15 -12 -37
-19 -53 -17 -24 3 -29 9 -35 50 -7 42 -5 54 26 115 38 76 48 119 39 164 -4 21
-10 28 -21 24 -8 -3 -21 0 -28 6 -9 7 -31 9 -59 6 -38 -6 -45 -4 -50 13 -6 19
-82 139 -95 150 -17 15 -50 70 -56 96 -4 16 -10 34 -14 39 -4 6 -13 26 -19 47
-7 20 -23 48 -36 63 -14 14 -25 28 -25 31 0 3 -14 23 -32 45 -52 65 -115 84
-180 55z m130 -44 c2 -6 18 -30 36 -54 35 -46 57 -85 105 -188 17 -36 44 -83
60 -105 28 -37 91 -148 91 -160 0 -3 -8 -5 -18 -5 -55 0 -200 -115 -232 -184
-10 -23 -16 -52 -13 -64 4 -18 1 -22 -19 -22 -13 0 -46 -11 -74 -24 -48 -24
-49 -24 -63 -5 -7 10 -20 19 -27 19 -8 0 -14 4 -14 9 0 11 -114 62 -165 73
-22 5 -60 11 -84 13 -24 2 -50 6 -58 9 -8 3 -36 1 -64 -5 -28 -6 -56 -12 -62
-13 -74 -16 -117 -45 -117 -79 0 -10 8 -32 17 -48 22 -37 12 -45 -34 -31 -21
7 -71 13 -110 15 -40 2 -76 6 -79 10 -4 4 -19 7 -33 7 -46 0 -55 14 -55 82 0
35 7 99 17 143 9 44 17 100 17 125 0 25 12 72 25 105 14 33 25 68 25 77 0 27
44 118 57 118 7 0 20 8 30 18 12 12 36 19 71 20 52 3 55 2 104 -47 28 -28 55
-51 59 -51 4 0 10 -9 14 -19 3 -11 21 -29 40 -40 l34 -20 58 30 c32 16 72 32
88 34 71 12 76 15 101 68 13 29 24 60 24 69 0 25 68 88 129 121 37 19 112 18
119 -1z"/>
<path d="M3734 1736 c-26 -25 -37 -45 -41 -76 -5 -37 -4 -42 13 -38 11 2 24
17 30 37 16 49 37 57 87 32 40 -20 62 -15 51 13 -4 10 -88 66 -99 66 -3 0 -21
-15 -41 -34z"/>
<path d="M2822 1493 c-7 -3 -23 -21 -36 -42 -13 -20 -57 -73 -97 -118 -41 -45
-84 -96 -97 -112 -24 -32 -62 -131 -62 -163 0 -10 -9 -37 -21 -59 -11 -22 -19
-50 -19 -62 1 -12 2 -41 1 -64 -1 -40 -2 -42 -28 -38 -16 2 -35 6 -44 10 -10
3 -20 2 -24 -4 -9 -16 -25 -14 -25 3 0 9 -17 16 -46 21 -43 6 -52 3 -126 -42
-44 -26 -89 -60 -100 -75 -22 -32 -27 -101 -7 -124 17 -20 67 -46 82 -41 6 2
19 -5 29 -15 22 -22 73 -23 121 -3 59 25 180 21 213 -6 10 -8 34 -36 54 -64
59 -79 89 -104 168 -141 41 -19 76 -34 78 -34 2 0 4 9 4 20 0 15 -13 26 -44
40 -79 33 -124 69 -165 127 -22 32 -54 73 -72 92 -36 38 -36 37 -29 284 2 98
6 127 16 127 9 0 14 12 14 31 0 18 8 46 19 63 10 17 22 42 26 55 11 37 49 87
112 149 57 56 133 160 133 181 0 12 -7 13 -28 4z m-427 -683 c3 -5 27 -10 51
-10 l46 0 -8 -32 c-8 -35 -7 -111 2 -141 5 -16 3 -17 -14 -8 -29 16 -78 13
-142 -9 -65 -21 -108 -19 -173 9 -40 17 -47 24 -47 48 0 15 8 38 18 50 17 22
104 85 132 96 26 10 128 8 135 -3z"/>
<path d="M3910 616 c0 -49 2 -55 23 -58 12 -2 22 -8 22 -13 0 -6 17 -28 38
-48 30 -31 37 -45 37 -77 0 -33 -6 -44 -42 -74 -23 -20 -60 -42 -82 -48 -39
-11 -299 -17 -341 -7 -12 2 -20 -2 -23 -13 -5 -25 53 -39 171 -40 80 -1 111 2
128 14 15 9 37 13 56 11 23 -4 47 3 86 26 93 53 108 101 60 202 -20 42 -36 62
-60 73 -28 13 -32 20 -27 40 7 29 -11 66 -31 66 -11 0 -15 -13 -15 -54z"/>
<path d="M2881 321 c-8 -5 -11 -16 -8 -24 5 -14 41 -22 148 -31 26 -2 51 -6
55 -9 5 -2 34 -10 64 -17 59 -13 140 -10 285 12 74 11 90 16 93 32 4 18 -1 19
-89 12 -50 -4 -100 -11 -109 -16 -24 -13 -85 -13 -155 -1 -33 6 -80 14 -105
17 -25 3 -54 9 -65 14 -33 14 -99 20 -114 11z"/>
</g>
</svg>
