<?xml version="1.0" standalone="no"?>
<!DOCTYPE svg PUBLIC "-//W3C//DTD SVG 20010904//EN"
 "http://www.w3.org/TR/2001/REC-SVG-20010904/DTD/svg10.dtd">
<svg version="1.0" xmlns="http://www.w3.org/2000/svg"
 width="736.000000pt" height="736.000000pt" viewBox="0 0 736 990"
 preserveAspectRatio="xMidYMid meet">

<g transform="translate(0.000000,736.000000) scale(0.100000,-0.100000)"
fill="#000000" stroke="none">
<path d="M2733 6755 c-44 -39 -66 -73 -146 -228 -143 -275 -302 -653 -372
-882 -32 -105 -79 -289 -105 -410 -4 -22 -15 -65 -23 -95 -18 -67 -32 -157
-53 -360 -20 -193 -13 -456 18 -635 24 -138 25 -225 5 -316 -37 -161 -29 -347
18 -460 30 -71 26 -78 -40 -80 -105 -2 -267 -11 -382 -22 -127 -12 -128 -12
-131 -38 -5 -44 12 -49 139 -38 167 14 388 29 434 28 l40 0 45 -95 c25 -53 46
-99 47 -103 2 -3 -18 -7 -45 -9 -26 -1 -112 -20 -192 -42 -80 -21 -203 -53
-275 -71 -71 -17 -136 -37 -143 -44 -19 -17 1 -55 28 -55 25 0 295 65 380 91
101 31 278 59 307 48 28 -11 83 -62 83 -78 0 -6 5 -11 10 -11 46 0 -70 -77
-325 -215 -99 -54 -200 -110 -224 -125 -42 -24 -79 -69 -80 -97 -1 -20 57 -4
129 35 36 19 103 55 150 80 47 25 110 59 140 77 80 45 209 105 242 112 16 3
31 10 34 14 16 26 82 4 162 -54 57 -41 202 -116 263 -136 56 -18 72 -42 64
-93 -11 -71 -122 -388 -175 -501 -63 -136 -112 -254 -139 -342 -24 -73 -32
-91 -147 -315 -38 -74 -100 -198 -137 -275 -37 -77 -81 -163 -98 -192 -31 -53
-139 -309 -139 -330 0 -7 -6 -27 -14 -45 -29 -65 -98 -294 -106 -348 -5 -30
-11 -65 -15 -77 l-7 -23 1491 0 1491 0 0 43 c-1 53 -34 291 -53 377 -8 36 -48
166 -90 290 -41 124 -79 243 -85 265 -24 86 -70 289 -92 400 -4 22 -15 76 -24
120 -87 418 -112 587 -123 822 -5 111 -3 122 13 131 16 8 113 41 244 83 19 7
73 34 120 62 47 27 101 59 120 70 19 11 46 28 60 39 30 23 74 20 222 -16 106
-27 466 -162 539 -204 36 -20 53 -24 65 -17 21 13 20 28 -3 40 -10 6 -21 14
-24 19 -27 36 -299 150 -459 192 -106 28 -230 77 -230 90 0 8 4 14 8 14 5 0
33 30 63 68 79 99 68 94 194 87 418 -22 451 -26 609 -81 96 -34 136 -36 136
-9 0 15 -45 38 -142 71 -118 40 -208 54 -420 64 -257 13 -268 15 -268 43 0 45
46 153 75 177 34 28 293 60 520 64 167 3 190 5 193 19 2 11 -6 21 -23 27 -40
15 -321 12 -498 -6 -87 -9 -161 -14 -164 -11 -3 4 0 26 6 49 22 76 30 131 30
211 1 85 -25 320 -38 346 -4 9 -14 42 -21 74 -12 50 -11 73 3 170 23 156 43
656 28 707 -6 20 -11 77 -11 126 0 51 -8 128 -19 179 -11 50 -27 133 -36 185
-9 52 -23 115 -31 139 -8 25 -14 55 -14 68 0 27 -7 51 -85 293 -30 91 -61 197
-70 235 -21 87 -82 266 -95 279 -6 6 -10 16 -10 23 0 24 -72 167 -110 218 -45
61 -72 80 -133 96 -103 26 -197 -50 -282 -226 -29 -60 -60 -130 -68 -155 -9
-25 -29 -74 -45 -110 -16 -36 -40 -99 -52 -140 -13 -41 -56 -176 -97 -300 -41
-124 -81 -254 -89 -289 -19 -79 -92 -310 -105 -331 -5 -8 -13 -25 -18 -36 -5
-12 -18 -25 -28 -30 -10 -4 -99 -10 -198 -11 -99 -2 -207 -4 -240 -5 l-60 -3
-6 70 c-7 81 -26 160 -79 335 -21 69 -50 169 -64 223 -25 93 -53 167 -146 377
-23 52 -84 200 -136 329 -96 238 -148 332 -197 350 -12 5 -44 11 -72 15 -49 6
-51 5 -102 -39z m508 -2298 c67 -16 79 -24 174 -115 93 -89 126 -155 154 -312
26 -143 26 -216 1 -316 -24 -94 -90 -198 -151 -238 -72 -48 -183 -68 -354 -64
-85 2 -159 8 -170 14 -11 6 -39 20 -62 30 -56 25 -189 156 -221 219 -22 44
-26 67 -32 185 -3 74 -2 155 2 180 14 81 75 185 157 268 102 104 176 141 306
152 125 11 136 11 196 -3z m1553 -35 c85 -47 112 -70 157 -134 50 -72 74 -139
99 -277 44 -239 14 -356 -129 -504 -58 -60 -97 -85 -164 -103 -70 -19 -223
-18 -278 1 -102 36 -212 157 -244 270 -24 80 -22 293 3 377 50 166 162 321
275 378 58 30 67 31 143 27 67 -4 92 -10 138 -35z m-734 -932 c15 -27 7 -37
-40 -51 -30 -9 -52 -9 -101 2 -64 14 -80 29 -59 54 9 11 35 15 101 15 78 0 90
-2 99 -20z"/>
<path d="M3222 4100 c-91 -85 -93 -287 -3 -361 40 -33 51 -35 90 -15 64 34 96
236 49 315 -49 83 -92 102 -136 61z"/>
<path d="M4490 4083 c-41 -52 -52 -93 -51 -195 1 -140 33 -198 110 -198 45 0
77 18 97 55 14 27 16 49 12 137 -6 109 -16 140 -64 197 -34 40 -74 42 -104 4z"/>
</g>
</svg>
